<svg xmlns="http://www.w3.org/2000/svg" width="42.387" height="76.291" viewBox="0 0 42.387 76.291">
  <g id="payment_app_ecommerce_buy_pay_icon_143293" transform="translate(0 0)">
    <path id="Caminho_402" data-name="Caminho 402" d="M171.587,91.06V27.71a6.571,6.571,0,0,0-6.652-6.47H135.852a6.573,6.573,0,0,0-6.652,6.47V91.06a6.573,6.573,0,0,0,6.652,6.47h29.082a6.571,6.571,0,0,0,6.652-6.47ZM135.852,23.1h29.082a4.679,4.679,0,0,1,4.738,4.606V85.248H131.117V33.522h35.2a.966.966,0,0,0,.864-.454.91.91,0,0,0,0-.955.966.966,0,0,0-.864-.454h-35.2V27.71A4.679,4.679,0,0,1,135.852,23.1ZM131.117,91.06V87.112H169.67V91.06a4.679,4.679,0,0,1-4.735,4.606H135.852A4.679,4.679,0,0,1,131.117,91.06Z" transform="translate(-129.2 -21.24)" fill="#2e291f"/>
    <path id="Caminho_403" data-name="Caminho 403" d="M226.475,54.979h7.268a.84.84,0,0,0,0-1.679h-7.268a.84.84,0,0,0,0,1.679Z" transform="translate(-208.915 -48.608)" fill="#2e291f"/>
    <path id="Caminho_404" data-name="Caminho 404" d="M233.742,446.86h-7.268a.84.84,0,0,0,0,1.679h7.268a.84.84,0,0,0,0-1.679Z" transform="translate(-208.915 -376.994)" fill="#2e291f"/>
    <path id="Caminho_405" data-name="Caminho 405" d="M302.493,54.472a.984.984,0,0,0,.078.146,1.1,1.1,0,0,0,.105.127.788.788,0,0,0,.127.1.859.859,0,0,0,.146.078.823.823,0,0,0,.158.048.865.865,0,0,0,.164.016.834.834,0,0,0,.7-.373.987.987,0,0,0,.078-.146.9.9,0,0,0,.048-.158.875.875,0,0,0,.015-.168.839.839,0,0,0-1.433-.585.97.97,0,0,0-.105.127.986.986,0,0,0-.078.146.849.849,0,0,0-.045.158.767.767,0,0,0,0,.326A.786.786,0,0,0,302.493,54.472Z" transform="translate(-273.306 -48.619)" fill="#2e291f"/>
    <path id="Caminho_406" data-name="Caminho 406" d="M197.357,237.205A9.513,9.513,0,0,1,182.7,226.24a.84.84,0,0,0-1.567-.6,11.192,11.192,0,0,0,17.242,12.9.841.841,0,1,0-1.024-1.333Z" transform="translate(-170.801 -191.026)" fill="#2e291f"/>
    <path id="Caminho_407" data-name="Caminho 407" d="M252.155,179.55a.84.84,0,0,0,0,1.679,9.52,9.52,0,0,1,9.513,9.513.84.84,0,0,0,1.679,0A11.2,11.2,0,0,0,252.155,179.55Z" transform="translate(-229.721 -153.287)" fill="#2e291f"/>
    <path id="Caminho_408" data-name="Caminho 408" d="M209.46,193.855a.839.839,0,0,0,.5-.17c.111-.085.227-.167.342-.247a.839.839,0,0,0-.948-1.385c-.138.094-.272.192-.405.293a.84.84,0,0,0,.506,1.51Z" transform="translate(-195.249 -164.095)" fill="#2e291f"/>
    <path id="Caminho_409" data-name="Caminho 409" d="M237.438,222.24h1.071a1.014,1.014,0,1,1,0,2.028h-2.078a.84.84,0,0,0,0,1.679h.7v.585a.84.84,0,0,0,1.679,0v-.6a2.693,2.693,0,0,0-.3-5.368h-1.071a1.014,1.014,0,1,1,0-2.027h2.078a.84.84,0,1,0,0-1.679h-.7v-.585a.84.84,0,0,0-1.679,0v.6a2.691,2.691,0,0,0,.3,5.367Z" transform="translate(-216.635 -183.256)" fill="#2e291f"/>
  </g>
</svg>
