<svg xmlns="http://www.w3.org/2000/svg" width="22.173" height="18.017" viewBox="0 0 22.173 18.017">
  <g id="shopping-cart_icon-icons.com_56125" transform="translate(0 -48.984)">
    <g id="Grupo_362" data-name="Grupo 362" transform="translate(0 48.984)">
      <g id="Grupo_361" data-name="Grupo 361" transform="translate(0 0)">
        <path id="Caminho_383" data-name="Caminho 383" d="M19.4,60.457H7.862L3.011,49.37H0V47.984H3.918L8.769,59.071H19.4Z" transform="translate(0 -47.984)" fill="#2e291f"/>
      </g>
      <path id="Caminho_384" data-name="Caminho 384" d="M175.243,111.984l-2.772,6.929h-9.7L160,111.984Z" transform="translate(-153.071 -109.212)" fill="#2e291f"/>
      <path id="Caminho_385" data-name="Caminho 385" d="M196.156,370.063a2.078,2.078,0,1,1-2.078-2.079A2.079,2.079,0,0,1,196.156,370.063Z" transform="translate(-183.685 -354.125)" fill="#2e291f"/>
      <path id="Caminho_386" data-name="Caminho 386" d="M356.127,370.063a2.079,2.079,0,1,1-2.079-2.079A2.079,2.079,0,0,1,356.127,370.063Z" transform="translate(-336.726 -354.125)" fill="#2e291f"/>
    </g>
  </g>
</svg>
